<?xml version="1.0" encoding="utf-8"?>
<!-- Generator: Adobe Illustrator 23.0.0, SVG Export Plug-In . SVG Version: 6.00 Build 0)  -->
<svg version="1.1" id="Layer_1" xmlns="http://www.w3.org/2000/svg" xmlns:xlink="http://www.w3.org/1999/xlink" x="0px" y="0px"
	 viewBox="0 0 44 44" style="enable-background:new 0 0 44 44;" xml:space="preserve">
<style type="text/css">
	.st0{fill:#B79D59;}
	.st1{fill-rule:evenodd;clip-rule:evenodd;fill:#B79D59;}
</style>
<g>
	<path class="st0" d="M42,6v36H2V6H42 M44,4H0v40h44V4L44,4z"/>
</g>
<g>
	<rect x="8.5" class="st1" width="2" height="10"/>
	<rect x="16.83" class="st1" width="2" height="10"/>
	<rect x="25.17" class="st1" width="2" height="10"/>
	<rect x="33.5" class="st1" width="2" height="10"/>
</g>
<g>
	<g>
		<path class="st0" d="M42,14v28H2V14H42 M44,12H0v32h44V12L44,12z"/>
	</g>
</g>
<g>
	<path class="st0" d="M22.75,16.21h-1.5v2.39c-3.6,0.33-6.4,3-6.4,6.26v0.79v14.15h3.19h7.92h3.19v-6.87l4.24-4.13h-2.15l-2.85,2.78
		h-0.74h-1.69v-5.93h3.19v-0.79c0-3.25-2.8-5.93-6.4-6.26V16.21L22.75,16.21z M22.75,24.14v-3.79c0.81,0.58,1.53,2,1.67,3.79H22.75
		L22.75,24.14z M19.58,24.14c0.14-1.78,0.87-3.21,1.67-3.79v3.79H19.58L19.58,24.14z M25.94,24.14c-0.08-1.23-0.4-2.37-0.89-3.3
		c1.33,0.73,2.29,1.92,2.53,3.3H25.94L25.94,24.14z M16.41,24.14c0.25-1.39,1.2-2.57,2.53-3.3c-0.49,0.93-0.81,2.07-0.89,3.3H16.41
		L16.41,24.14z M22.75,31.57v-5.93h1.71v5.93H22.75L22.75,31.57z M19.54,38.29V25.64h1.71v12.65H19.54L19.54,38.29z M16.35,38.29
		V25.64h1.69v12.65H16.35L16.35,38.29z M25.96,38.29v-5.22h1.69v5.22H25.96L25.96,38.29z M22.75,38.29v-5.22h1.71v5.22H22.75
		L22.75,38.29z"/>
</g>
</svg>
