<?xml version="1.0" encoding="utf-8"?>
<!-- Generator: Adobe Illustrator 23.1.0, SVG Export Plug-In . SVG Version: 6.00 Build 0)  -->
<svg version="1.1" id="Layer_1" xmlns="http://www.w3.org/2000/svg" xmlns:xlink="http://www.w3.org/1999/xlink" x="0px" y="0px"
	 viewBox="0 0 184 60" style="enable-background:new 0 0 184 60;" xml:space="preserve">
<style type="text/css">
	.st0{fill-rule:evenodd;clip-rule:evenodd;}
</style>
<g id="그룹_807_1_" transform="translate(-800.5 215)">
	<path id="패스_156_1_" class="st0" d="M800.5-214.3v59h13.2v-1.7H804v-57.3H800.5z"/>
	<path id="패스_151_1_" class="st0" d="M971.3-214.3v59h13.2v-1.7h-9.7v-27.1h9.7v-1.7h-9.7v-26.8h9.7v-1.7L971.3-214.3
		L971.3-214.3z"/>
	<path id="패스_128_1_" class="st0" d="M835.1-185.2l7.6-7.5h-2.5l-8.7,8.5v28.9h13.2v-1.7H835L835.1-185.2z"/>
	<path id="패스_129_1_" class="st0" d="M831.6-214.3v21.7h3.5v-19.9h9.7v-1.7L831.6-214.3L831.6-214.3z"/>
	<path id="패스_157_1_" class="st0" d="M820.1-214.3h-3l-1.1,13h0.7L820.1-214.3z"/>
	<path id="패스_152_1_" class="st0" d="M866.4-185.2c1,0.3,1.8,1.1,2.1,2.1c0.2,1.3,0.3,2.6,0.3,3.9v16.7c0,0.8,0,1.6-0.1,2.4
		c-0.1,2-1.8,3.6-3.9,3.5c0,0,0,0-0.1,0c-0.9,0-1.8-0.3-2.6-0.7c-1.1-0.6-2-1.7-2.5-2.9c-0.3-0.8-0.5-1.7-0.5-2.6h-1.8
		c-0.1,2.9,1.5,5.6,4,7c1.1,0.6,2.3,0.9,3.5,0.9c2.6,0.1,5-1.2,6.4-3.5c0.7-1.2,1-2.7,1-4.1v-16.6c0.1-1.5-0.1-3-0.6-4.4
		c-0.7-1.4-1.9-2.5-3.3-3.1c-1.1-0.4-2.2-0.6-3.3-0.7c-1.9-0.3-3.2-0.8-3.8-2.5c-0.2-1.3-0.3-2.6-0.3-3.9v-13.6c0-0.8,0-1.6,0.1-2.4
		c0.1-2,1.8-3.6,3.9-3.5c0,0,0,0,0.1,0c0.9,0,1.8,0.3,2.6,0.7c1.1,0.6,2,1.7,2.5,2.9c0.3,0.8,0.5,1.7,0.5,2.6h1.8
		c0.1-2.9-1.5-5.6-4-7c-1.1-0.6-2.3-0.9-3.5-0.9c-2.6-0.1-5,1.2-6.4,3.5c-0.7,1.2-1,2.7-1,4.1v13.6c-0.1,1.5,0.1,3,0.6,4.4
		c0.7,1.4,1.9,2.6,3.4,3.1C862.9-185.7,865.2-185.6,866.4-185.2"/>
	<path id="패스_153_1_" class="st0" d="M891.1-176.2v13.6c0,0.8,0,1.6,0.1,2.4c0.1,2,1.8,3.6,3.9,3.5c0,0,0,0,0.1,0
		c0.9,0,1.8-0.3,2.6-0.7c1.1-0.6,2-1.7,2.5-2.9c0.3-0.8,0.5-1.7,0.5-2.6h1.8c0.1,2.9-1.5,5.6-4,7c-1.1,0.6-2.3,0.9-3.5,0.9
		c-2.6,0.1-5-1.2-6.4-3.5c-0.7-1.2-1-2.7-1-4.1v-44.8c-0.1-1.4,0.3-2.9,1-4.1c1.3-2.2,3.8-3.6,6.4-3.5c1.2,0,2.5,0.3,3.5,0.9
		c2.5,1.4,4.1,4.1,4,7h-1.8c0-0.9-0.2-1.8-0.5-2.6c-0.5-1.2-1.3-2.2-2.5-2.9c-0.8-0.5-1.7-0.7-2.6-0.7c-2-0.1-3.8,1.4-3.9,3.4
		c0,0,0,0,0,0.1c-0.1,0.8-0.1,1.6-0.1,2.4L891.1-176.2L891.1-176.2z"/>
	<path id="패스_154_1_" class="st0" d="M946.9-182.9v-29.6h3.7c1-0.1,1.9,0.1,2.7,0.6c0.5,0.4,0.9,1,1.1,1.7
		c0.1,0.9,0.2,1.7,0.2,2.6v18.8c0.1,1.6,0,3.2-0.3,4.7c-0.4,1.6-1.8,2.7-3.5,2.9C949.4-181.5,948.1-182.1,946.9-182.9 M949.8-214.3
		h-6.4v59h3.5V-181c1.2,0.8,2.7,1.3,4.2,1.3c2.7,0,5.2-1.6,6.3-4.1c0.6-1.4,0.7-2.7,0.7-5.7v-16.8c0.1-1.4-0.1-2.8-0.6-4.1
		c-0.6-1.5-1.8-2.7-3.2-3.4C953.2-214.2,952.6-214.3,949.8-214.3"/>
	<path id="패스_155_1_" class="st0" d="M916.7-175.5l3.8-28.6l3.6,28.6H916.7z M926.7-155.2h3.5l-7.8-59.7h-2.2l-7.8,59.7h1.8
		l2.4-18.6h7.8L926.7-155.2z"/>
</g>
</svg>
