<?xml version="1.0" encoding="utf-8"?>
<!-- Generator: Adobe Illustrator 23.1.0, SVG Export Plug-In . SVG Version: 6.00 Build 0)  -->
<svg version="1.1" id="Layer_1" xmlns="http://www.w3.org/2000/svg" xmlns:xlink="http://www.w3.org/1999/xlink" x="0px" y="0px"
	 viewBox="0 0 224 64" style="enable-background:new 0 0 224 64;" xml:space="preserve">
<style type="text/css">
	.st0{fill-rule:evenodd;clip-rule:evenodd;}
</style>
<g id="그룹_807" transform="translate(-800.5 215)">
	<path id="패스_156" class="st0" d="M840.5-212.4v59.1h13.2v-1.7H844v-57.4H840.5z"/>
	<path id="패스_151" class="st0" d="M1011.3-212.4v59.1h13.2v-1.7h-9.7v-27.1h9.7v-1.7h-9.7v-26.8h9.7v-1.7H1011.3z"/>
	<path id="패스_128" class="st0" d="M875.1-183.3l7.6-7.5h-2.5l-8.7,8.5l0,29h13.2v-1.7h-9.7L875.1-183.3z"/>
	<path id="패스_129" class="st0" d="M871.6-212.4v21.7h3.5v-19.9h9.7v-1.7H871.6z"/>
	<path id="패스_157" class="st0" d="M860.1-212.4h-3l-1.1,13h0.7L860.1-212.4z"/>
	<path id="패스_152" class="st0" d="M906.4-183.3c1,0.3,1.8,1.1,2.1,2.1c0.2,1.3,0.3,2.6,0.3,3.9v16.7c0,0.8,0,1.6-0.1,2.4
		c-0.1,2-1.8,3.6-3.9,3.5c0,0,0,0-0.1,0c-0.9,0-1.8-0.3-2.6-0.7c-1.1-0.6-2-1.7-2.5-2.9c-0.3-0.8-0.5-1.7-0.5-2.6h-1.8
		c-0.1,2.9,1.5,5.6,4,7c1.1,0.6,2.3,0.9,3.5,0.9c2.6,0.1,5-1.2,6.4-3.5c0.7-1.2,1-2.7,1-4.1v-16.6c0.1-1.5-0.1-3-0.6-4.4
		c-0.7-1.4-1.9-2.5-3.3-3.1c-1.1-0.4-2.2-0.6-3.3-0.7c-1.9-0.3-3.2-0.8-3.8-2.5c-0.2-1.3-0.3-2.6-0.3-3.9v-13.6c0-0.8,0-1.6,0.1-2.4
		c0.1-2,1.8-3.6,3.9-3.5c0,0,0,0,0.1,0c0.9,0,1.8,0.3,2.6,0.7c1.1,0.6,2,1.7,2.5,2.9c0.3,0.8,0.5,1.7,0.5,2.6h1.8
		c0.1-2.9-1.5-5.6-4-7c-1.1-0.6-2.3-0.9-3.5-0.9c-2.6-0.1-5,1.2-6.4,3.5c-0.7,1.2-1,2.7-1,4.1v13.6c-0.1,1.5,0.1,3,0.6,4.4
		c0.7,1.4,1.9,2.6,3.4,3.1C902.9-183.8,905.2-183.7,906.4-183.3"/>
	<path id="패스_153" class="st0" d="M931.1-174.2v13.6c0,0.8,0,1.6,0.1,2.4c0.1,2,1.8,3.6,3.9,3.5c0,0,0,0,0.1,0
		c0.9,0,1.8-0.3,2.6-0.7c1.1-0.6,2-1.7,2.5-2.9c0.3-0.8,0.5-1.7,0.5-2.6h1.8c0.1,2.9-1.5,5.6-4,7c-1.1,0.6-2.3,0.9-3.5,0.9
		c-2.6,0.1-5-1.2-6.4-3.5c-0.7-1.2-1-2.7-1-4.1v-44.9c-0.1-1.4,0.3-2.9,1-4.1c1.3-2.2,3.8-3.6,6.4-3.5c1.2,0,2.5,0.3,3.5,0.9
		c2.5,1.4,4.1,4.1,4,7h-1.8c0-0.9-0.2-1.8-0.5-2.6c-0.5-1.2-1.3-2.2-2.5-2.9c-0.8-0.5-1.7-0.7-2.6-0.7c-2-0.1-3.8,1.4-3.9,3.4
		c0,0,0,0,0,0.1c-0.1,0.8-0.1,1.6-0.1,2.4V-174.2z"/>
	<path id="패스_154" class="st0" d="M986.9-180.9v-29.7h3.7c1-0.1,1.9,0.1,2.7,0.6c0.5,0.4,0.9,1,1.1,1.7c0.1,0.9,0.2,1.7,0.2,2.6
		v18.8c0.1,1.6,0,3.2-0.3,4.7c-0.4,1.6-1.8,2.7-3.5,2.9C989.4-179.5,988.1-180,986.9-180.9 M989.8-212.4h-6.4v59.1h3.5V-179
		c1.2,0.8,2.7,1.3,4.2,1.3c2.7,0,5.2-1.6,6.3-4.1c0.6-1.4,0.7-2.7,0.7-5.7v-16.8c0.1-1.4-0.1-2.8-0.6-4.1c-0.6-1.5-1.8-2.7-3.2-3.4
		C993.2-212.3,992.6-212.4,989.8-212.4"/>
	<path id="패스_155" class="st0" d="M956.7-173.5l3.8-28.7l3.6,28.7H956.7z M966.7-153.2h3.5l-7.8-59.8h-2.2l-7.8,59.8h1.8
		l2.5-18.6h7.8L966.7-153.2z"/>
</g>
<g id="그룹_808" transform="translate(-819.5 246)">
	<path id="패스_135" class="st0" d="M827.4-208.6h9.2v-1.4h-9.2V-208.6z"/>
	<path id="패스_136" class="st0" d="M819.5-200.7h8.6v-1.3h-8.6V-200.7z"/>
	<path id="패스_137" class="st0" d="M819.5-182h17.1v-1.3h-17.1V-182z"/>
	<path id="패스_138" class="st0" d="M823.2-192.7h13.4v-1.3h-13.4V-192.7z"/>
	<path id="패스_139" class="st0" d="M828.1-186h8.5v-1.3h-8.5V-186z"/>
	<path id="패스_140" class="st0" d="M819.5-231.3h17.1c0-5.2-3.8-9.3-8.6-9.3C823.3-240.7,819.5-236.5,819.5-231.3z M835.4-232.7
		h-14.7c0.4-4,4-7,8-6.6C832.3-239,835-236.2,835.4-232.7z"/>
	<path id="패스_141" class="st0" d="M828.1-240.7c-2.5,0-4.9,4.2-4.9,9.3h9.8C833-236.4,830.5-240.7,828.1-240.7z M831.7-232.7
		h-7.3c0.2-4.2,2.1-6.7,3.7-6.7C829.6-239.3,831.5-236.9,831.7-232.7z"/>
	<path id="패스_142" class="st0" d="M819.5-182h1.2v-49.3h-1.2V-182z"/>
	<path id="패스_143" class="st0" d="M823.2-182h1.2v-49.3h-1.2V-182z"/>
	<path id="패스_144" class="st0" d="M827.4-182h1.2v-58.1h-1.2V-182z"/>
	<path id="패스_145" class="st0" d="M831.7-182h1.2v-49.3h-1.2V-182z"/>
	<path id="패스_146" class="st0" d="M835.4-182h1.2v-28h-1.2V-182z"/>
	<path id="패스_147" class="st0" d="M835.4-223.3h1.2v-8h-1.2V-223.3z"/>
	<path id="패스_148" class="st0" d="M823.2-223.3h13.4v-1.3h-13.4V-223.3z"/>
	<path id="패스_149" class="st0" d="M828.1-246c-1.5-0.1-2.8,1-2.9,2.4c-0.1,1.5,1,2.8,2.4,2.9s2.8-1,2.9-2.4c0-0.1,0-0.2,0-0.2
		C830.6-244.7,829.5-245.9,828.1-246 M828.1-244.7c0.7-0.1,1.4,0.5,1.4,1.2c0.1,0.7-0.5,1.4-1.2,1.4c-0.7,0.1-1.4-0.5-1.4-1.2
		c0,0,0-0.1,0-0.1C826.8-244,827.4-244.6,828.1-244.7"/>
	<path id="패스_150" class="st0" d="M841.5-216l-6.1,6.7l1.2,0.7l4.9-5.4V-216z"/>
</g>
</svg>
