<?xml version="1.0" encoding="utf-8"?>
<!-- Generator: Adobe Illustrator 23.1.0, SVG Export Plug-In . SVG Version: 6.00 Build 0)  -->
<svg version="1.1" id="Layer_1" xmlns="http://www.w3.org/2000/svg" xmlns:xlink="http://www.w3.org/1999/xlink" x="0px" y="0px"
	 viewBox="0 0 40 32" style="enable-background:new 0 0 40 32;" xml:space="preserve">
<style type="text/css">
	.st0{fill:#040000;}
	.st1{fill:none;}
</style>
<path class="st0" d="M13.7,13.9c-3.8,0-6.9-3.1-6.9-6.9c0-3.8,3.1-6.9,6.9-6.9s6.9,3.1,6.9,6.9C20.6,10.9,17.5,13.9,13.7,13.9z
	 M13.7,2.2c-2.7,0-4.9,2.2-4.9,4.9s2.2,4.9,4.9,4.9s4.9-2.2,4.9-4.9S16.4,2.2,13.7,2.2z"/>
<path class="st0" d="M29.8,14.2c-3.1,0-5.6-2.5-5.6-5.5s2.5-5.5,5.6-5.5s5.6,2.5,5.6,5.5S32.9,14.2,29.8,14.2z M29.8,5.1
	c-2,0-3.6,1.6-3.6,3.5s1.6,3.5,3.6,3.5c2,0,3.6-1.6,3.6-3.5S31.8,5.1,29.8,5.1z"/>
<path class="st1" d="M19,22.4c0-2.3,0.8-4.5,2.2-6.2c-2-1.5-4.5-2.3-7.1-2.3c-0.1,0-0.1,0-0.2,0C7.4,13.9,2.1,19.1,2,25.6
	c0,2.4,5.3,4.2,12,4.2c5.4,0,9.8-1.2,11.4-2.9c-1-0.2-1.9-0.4-2.7-0.7C19.6,25.2,19,23.6,19,22.4z"/>
<path class="st1" d="M29.5,25.2c4.7,0,8.5-1.3,8.5-2.8c-0.1-4.6-3.8-8.2-8.4-8.2c-0.1,0-0.2,0-0.3,0c-2,0-3.9,0.7-5.4,1.9
	c2.3,2.4,3.8,5.5,3.9,9.1C28.4,25.2,28.9,25.2,29.5,25.2z"/>
<path class="st1" d="M21,22.4c0,1.1,2,2.1,4.9,2.5c-0.2-2.9-1.4-5.5-3.3-7.4C21.6,18.9,21,20.6,21,22.4z"/>
<path class="st0" d="M22.6,17.6c1.9,2,3.1,4.5,3.3,7.4c0.6,0.1,1.3,0.2,2,0.2c-0.1-3.5-1.6-6.7-3.9-9.1C23.5,16.5,23,17,22.6,17.6z"
	/>
<path class="st0" d="M14,29.8c-6.7,0-12-1.9-12-4.2c0.1-6.4,5.4-11.6,11.8-11.6c0.1,0,0.1,0,0.2,0c2.7,0,5.1,0.8,7.1,2.3
	c0.4-0.5,0.9-1,1.4-1.5c-2.3-1.8-5.2-2.8-8.3-2.8c-0.1,0-0.1,0-0.2,0c-7.6-0.1-13.9,6-14,13.6C0,27,0.8,29,4.7,30.4
	c2.5,0.9,5.7,1.4,9.2,1.4c6,0,12-1.4,13.6-4.6c-0.8-0.1-1.5-0.1-2.2-0.3C23.8,28.6,19.3,29.8,14,29.8z"/>
<path class="st0" d="M29.7,12.2c-0.1,0-0.2,0-0.3,0c-2.6,0-5,1-6.8,2.6c0.5,0.4,1,0.9,1.5,1.3c1.5-1.2,3.3-1.9,5.4-1.9
	c0.1,0,0.2,0,0.3,0c4.6,0,8.3,3.7,8.4,8.2c0,1.6-3.8,2.8-8.5,2.8c-0.5,0-1.1,0-1.6-0.1c0,0.1,0,0.2,0,0.3v0c0,0.6-0.1,1.1-0.4,1.6
	c0.6,0,1.3,0.1,1.9,0.1c4.9,0,10.5-1.3,10.5-4.8v0C39.9,16.7,35.3,12.2,29.7,12.2z"/>
<path class="st0" d="M27.9,25.5c0-0.1,0-0.2,0-0.3c-0.7,0-1.4-0.1-2-0.2c0,0.2,0,0.4,0,0.6c0,0.5-0.2,0.9-0.6,1.3
	c0.7,0.1,1.5,0.2,2.2,0.3C27.8,26.7,27.9,26.1,27.9,25.5L27.9,25.5z"/>
<path class="st0" d="M21.1,16.2c0.5,0.4,1,0.8,1.5,1.3c0.4-0.5,0.9-1,1.4-1.5c-0.5-0.5-1-0.9-1.5-1.3C22,15.2,21.5,15.7,21.1,16.2z"
	/>
</svg>
