<?xml version="1.0" encoding="utf-8"?>
<!-- Generator: Adobe Illustrator 23.1.0, SVG Export Plug-In . SVG Version: 6.00 Build 0)  -->
<svg version="1.1" id="Layer_1" xmlns="http://www.w3.org/2000/svg" xmlns:xlink="http://www.w3.org/1999/xlink" x="0px" y="0px"
	 viewBox="0 0 40 32" style="enable-background:new 0 0 40 32;" xml:space="preserve">
<style type="text/css">
	.st0{fill:#040000;}
</style>
<g>
	<path class="st0" d="M39.6,4.8H0.4C0.2,4.8,0,4.6,0,4.3V2.7c0-0.2,0.2-0.4,0.4-0.4h39.2c0.2,0,0.4,0.2,0.4,0.4v1.7
		C40,4.6,39.8,4.8,39.6,4.8z"/>
	<path class="st0" d="M39.6,17.3H0.4c-0.2,0-0.4-0.2-0.4-0.4v-1.7c0-0.2,0.2-0.4,0.4-0.4h39.2c0.2,0,0.4,0.2,0.4,0.4v1.7
		C40,17.1,39.8,17.3,39.6,17.3z"/>
	<path class="st0" d="M39.6,29.8H0.4c-0.2,0-0.4-0.2-0.4-0.4v-1.7c0-0.2,0.2-0.4,0.4-0.4h39.2c0.2,0,0.4,0.2,0.4,0.4v1.7
		C40,29.6,39.8,29.8,39.6,29.8z"/>
</g>
</svg>
