<?xml version="1.0" encoding="utf-8"?>
<!-- Generator: Adobe Illustrator 23.0.0, SVG Export Plug-In . SVG Version: 6.00 Build 0)  -->
<svg version="1.1" id="Layer_1" xmlns="http://www.w3.org/2000/svg" xmlns:xlink="http://www.w3.org/1999/xlink" x="0px" y="0px"
	 viewBox="0 0 24 24" style="enable-background:new 0 0 24 24;" xml:space="preserve">
<style type="text/css">
	.st0{fill:#AAAAAA;}
</style>
<path id="Combined-Shape" class="st0" d="M17.95,0C21.29,0,24,2.71,24,6.05v11.89c0,3.34-2.71,6.05-6.05,6.05H6.05
	C2.71,24,0,21.29,0,17.95V6.05C0,2.71,2.71,0,6.05,0L17.95,0z M17.95,2.61H6.05c-1.9,0-3.44,1.54-3.44,3.44v11.89
	c0,1.9,1.54,3.44,3.44,3.44h11.89c1.9,0,3.44-1.54,3.44-3.44V6.05C21.39,4.15,19.85,2.61,17.95,2.61L17.95,2.61z M12,5.82
	c3.41,0,6.18,2.77,6.18,6.18s-2.77,6.18-6.18,6.18S5.82,15.41,5.82,12l0,0C5.82,8.59,8.59,5.82,12,5.82z M12,8.43
	c-1.97,0-3.57,1.6-3.57,3.57s1.6,3.57,3.57,3.57s3.57-1.6,3.57-3.57c0,0,0,0,0,0C15.57,10.03,13.97,8.43,12,8.43z M18.38,4.17
	c0.81,0,1.46,0.65,1.46,1.46S19.19,7.1,18.38,7.1c-0.81,0-1.46-0.65-1.46-1.46C16.92,4.83,17.57,4.17,18.38,4.17z"/>
</svg>
