<?xml version="1.0" encoding="utf-8"?>
<!-- Generator: Adobe Illustrator 23.0.0, SVG Export Plug-In . SVG Version: 6.00 Build 0)  -->
<svg version="1.1" id="Layer_1" xmlns="http://www.w3.org/2000/svg" xmlns:xlink="http://www.w3.org/1999/xlink" x="0px" y="0px"
	 viewBox="0 0 24 24" style="enable-background:new 0 0 24 24;" xml:space="preserve">
<style type="text/css">
	.st0{fill:#FFFFFF;}
</style>
<path id="Combined-Shape-2" class="st0" d="M12,0c6.63,0,12,5.37,12,12s-5.37,12-12,12S0,18.63,0,12c0,0,0,0,0,0C0,5.37,5.37,0,12,0
	z M17.73,9.4c-0.41-2.94-3.34-4.44-6.47-4.09c-2.71,0.26-4.84,2.43-5.05,5.14c-0.06,1.75,0.43,3.06,2.09,3.43
	c0.72-1.27-0.23-1.55-0.38-2.48c-0.61-3.77,4.35-6.35,6.95-3.71c1.8,1.83,0.62,7.44-2.29,6.86c-2.78-0.56,1.36-5.03-0.86-5.9
	c-1.8-0.71-2.76,2.18-1.9,3.62c-0.5,2.47-1.58,4.8-1.14,7.9c1.42-1.03,1.89-2.99,2.29-5.05c0.57,0.5,1.26,0.83,2,0.95
	C16.32,16.33,18.19,12.73,17.73,9.4L17.73,9.4z"/>
</svg>
