<?xml version="1.0" encoding="utf-8"?>
<!-- Generator: Adobe Illustrator 23.0.0, SVG Export Plug-In . SVG Version: 6.00 Build 0)  -->
<svg version="1.1" id="Layer_1" xmlns="http://www.w3.org/2000/svg" xmlns:xlink="http://www.w3.org/1999/xlink" x="0px" y="0px"
	 viewBox="0 0 24 24" style="enable-background:new 0 0 24 24;" xml:space="preserve">
<style type="text/css">
	.st0{fill:#AAAAAA;}
</style>
<path id="Combined-Shape-3" class="st0" d="M4.23,7.44c4.44-3.92,11.1-3.92,15.54,0H24c-0.56,0.69-1.01,1.46-1.35,2.28
	C23.52,10.77,24,12.1,24,13.47c0.03,3.3-2.62,6-5.92,6.03c-1.92,0.02-3.72-0.89-4.86-2.43l0,0l-1.16,2.43l-1.26-2.44
	c-1.96,2.66-5.7,3.23-8.36,1.27C0.89,17.19-0.01,15.39,0,13.47c0-1.37,0.48-2.7,1.35-3.75C1.01,8.9,0.56,8.13,0,7.44H4.23z M6,8.95
	c-2.5-0.01-4.53,2-4.54,4.5c-0.01,2.5,2,4.53,4.5,4.54c2.5,0.01,4.53-2,4.54-4.5c0-0.01,0-0.01,0-0.02C10.5,10.98,8.49,8.96,6,8.95z
	 M18,8.95c-2.5-0.01-4.53,2-4.54,4.5c-0.01,2.5,2,4.53,4.5,4.54c2.5,0.01,4.53-2,4.54-4.5c0-0.01,0-0.01,0-0.02
	C22.5,10.98,20.49,8.96,18,8.95L18,8.95z M6,10.45c1.67-0.01,3.02,1.33,3.03,3c0.01,1.67-1.33,3.02-3,3.03
	c-1.67,0.01-3.02-1.33-3.03-3c0,0,0-0.01,0-0.01C3,11.81,4.34,10.46,6,10.45z M18,10.45c1.67-0.01,3.02,1.33,3.03,3
	s-1.33,3.02-3,3.03c-1.67,0.01-3.02-1.33-3.03-3c0,0,0-0.01,0-0.01C15,11.81,16.34,10.46,18,10.45L18,10.45z M6,11.96
	c-0.83-0.01-1.51,0.66-1.52,1.5c-0.01,0.83,0.66,1.51,1.5,1.52c0.83,0.01,1.51-0.66,1.52-1.5c0,0,0-0.01,0-0.01
	C7.5,12.64,6.83,11.97,6,11.96z M18,11.96c-0.83-0.01-1.51,0.66-1.52,1.5c-0.01,0.83,0.66,1.51,1.5,1.52s1.51-0.66,1.52-1.5
	c0,0,0-0.01,0-0.01C19.5,12.64,18.83,11.97,18,11.96L18,11.96z M6,12.72c0.42,0,0.76,0.33,0.76,0.75c0,0.42-0.33,0.76-0.75,0.76
	s-0.76-0.33-0.76-0.75c0,0,0,0,0,0C5.25,13.06,5.58,12.72,6,12.72C6,12.72,6,12.72,6,12.72z M18,12.72c0.42,0,0.76,0.33,0.76,0.75
	c0,0.42-0.33,0.76-0.75,0.76c-0.42,0-0.76-0.33-0.76-0.75c0,0,0,0,0,0C17.25,13.06,17.58,12.72,18,12.72C18,12.72,18,12.72,18,12.72
	L18,12.72z"/>
</svg>
